<svg width="30" height="30" viewBox="0 0 30 30" fill="none" xmlns="http://www.w3.org/2000/svg">
<path d="M30 15C30 23.2843 23.2843 30 15 30C6.71573 30 0 23.2843 0 15C0 6.71573 6.71573 0 15 0C23.2843 0 30 6.71573 30 15Z" fill="black"/>
<path d="M16.2239 19.6771V10.375H26.75V12.4074H18.9256V14.1792H24.703V16.1074H18.9256V19.6771H16.2239Z" fill="white"/>
<path d="M3.25 19.6771V10.375H10.4645C11.1593 10.375 11.8107 10.4749 12.4187 10.6747C13.0267 10.8744 13.5609 11.1741 14.0212 11.5736C14.4815 11.9731 14.8419 12.4639 15.1025 13.0458C15.3631 13.619 15.4934 14.2791 15.4934 15.026C15.4934 15.6253 15.4065 16.1725 15.2328 16.6676C15.0678 17.154 14.8333 17.5839 14.5293 17.9574C14.2253 18.3309 13.8605 18.6479 13.4349 18.9084C13.018 19.1603 12.5577 19.3514 12.0539 19.4817C11.5502 19.612 11.0204 19.6771 10.4645 19.6771H3.25ZM5.94682 17.6447H10.0997C10.3429 17.6447 10.5861 17.6143 10.8293 17.5535C11.0812 17.484 11.32 17.3885 11.5458 17.2669C11.7717 17.1366 11.9714 16.9716 12.1451 16.7718C12.3188 16.5634 12.4535 16.3158 12.549 16.0292C12.6532 15.7339 12.7053 15.3995 12.7053 15.026C12.7053 14.5484 12.6272 14.1445 12.4708 13.8144C12.3232 13.4844 12.1191 13.2151 11.8585 13.0067C11.6066 12.7982 11.3244 12.6462 11.0117 12.5507C10.7077 12.4552 10.4037 12.4074 10.0997 12.4074H5.94682V17.6447Z" fill="white"/>
</svg>
